<svg xmlns="http://www.w3.org/2000/svg" viewBox="0 0 459.39 115"><defs><style>.a{fill:#f9c311;}.b{fill:#014d58;}.c{fill:#073339;}.d{fill:#7a7a7a;}</style></defs><title>資產 1</title><circle class="a" cx="57.5" cy="57.5" r="57.5"/><path class="b" d="M93.26,25.71l7.59-6A57.83,57.83,0,0,0,94,13.05,57.21,57.21,0,0,0,67,.8l-1,9.62A47.61,47.61,0,0,1,87.85,20.51,48.19,48.19,0,0,1,93.26,25.71Z"/><path class="c" d="M49,10.43,48,.81a57.25,57.25,0,0,0-32.9,17.91l7.21,6.42A47.63,47.63,0,0,1,49,10.43Z"/><path class="b" d="M13.2,39.4,4.45,35.32A57.58,57.58,0,0,0,2,72.41l9.19-3A47.92,47.92,0,0,1,13.2,39.4Z"/><path class="b" d="M94.49,87.85a47.6,47.6,0,0,1-21.72,15l2.39,9.38A57.21,57.21,0,0,0,101.95,94c1.1-1.33,2.11-2.71,3.07-4.11l-8-5.4C96.21,85.62,95.39,86.75,94.49,87.85Z"/><path class="c" d="M27.15,94.49a47.84,47.84,0,0,1-8.94-9.69L10,89.9A57.45,57.45,0,0,0,56.2,115l.29-9.65A47.62,47.62,0,0,1,27.15,94.49Z"/><path class="c" d="M110.48,35.17l-8.65,4.32a48,48,0,0,1,2,30l9.22,3A57.75,57.75,0,0,0,110.48,35.17Z"/><path class="c" d="M239.3,65.66q-6.83,12.63-20.62,12.63a24.6,24.6,0,0,1-9.39-1.77,23,23,0,0,1-7.5-4.88,22.45,22.45,0,0,1-5-7.35A23.25,23.25,0,0,1,195,55.1a24.36,24.36,0,0,1,1.77-9.36,22.73,22.73,0,0,1,4.88-7.44,22.18,22.18,0,0,1,7.41-4.91,24.22,24.22,0,0,1,9.3-1.77,25.82,25.82,0,0,1,6.68.85,22.65,22.65,0,0,1,5.89,2.47,21.22,21.22,0,0,1,4.79,3.93,19.22,19.22,0,0,1,3.39,5.25h-5.06a17.16,17.16,0,0,0-6.83-6.47,19.61,19.61,0,0,0-8.66-1.89,19.13,19.13,0,0,0-7.5,1.46,18.37,18.37,0,0,0-6,4,18.89,18.89,0,0,0-4,6.07,19.52,19.52,0,0,0-1.46,7.59,18.84,18.84,0,0,0,1.49,7.47,19.1,19.1,0,0,0,4.09,6.1,19.64,19.64,0,0,0,6.07,4.12,18.17,18.17,0,0,0,7.38,1.52,20,20,0,0,0,4.58-.49,15.66,15.66,0,0,0,4-1.53,18.81,18.81,0,0,0,3.63-2.62,31.41,31.41,0,0,0,3.51-3.84Z"/><path class="c" d="M280,60.9a18.48,18.48,0,0,1-1.28,6.92,16.71,16.71,0,0,1-3.54,5.52A16.15,16.15,0,0,1,269.8,77,17.26,17.26,0,0,1,263,78.28,19.05,19.05,0,0,1,255.86,77a16.66,16.66,0,0,1-5.64-3.69,17.12,17.12,0,0,1-3.72-5.61,18.28,18.28,0,0,1-1.34-7.08,17.17,17.17,0,0,1,5-12.29,16.72,16.72,0,0,1,5.55-3.66,19,19,0,0,1,13.88,0,16.14,16.14,0,0,1,5.46,3.66,17.22,17.22,0,0,1,3.6,5.55A18.43,18.43,0,0,1,280,60.9Zm-4.58.06a14.57,14.57,0,0,0-1-5.4,13.42,13.42,0,0,0-2.65-4.27,11.8,11.8,0,0,0-4-2.81,12.81,12.81,0,0,0-5.09-1,13,13,0,0,0-5.12,1,12.47,12.47,0,0,0-6.83,7,13.92,13.92,0,0,0-1,5.28,14.56,14.56,0,0,0,1,5.4,12.2,12.2,0,0,0,6.89,7,13.78,13.78,0,0,0,5.31,1,12.68,12.68,0,0,0,5-1,11.42,11.42,0,0,0,3.93-2.75,13.06,13.06,0,0,0,2.59-4.18A14.33,14.33,0,0,0,275.42,61Z"/><path class="c" d="M312.08,77.49V60a19.91,19.91,0,0,0-.73-5.79,10,10,0,0,0-2.1-3.87A8,8,0,0,0,306,48.15a12.52,12.52,0,0,0-4.21-.67,10.13,10.13,0,0,0-7.35,2.74q-2.84,2.75-2.84,8.91V77.49h-4.51V44.12h4.51v4.33a13.29,13.29,0,0,1,10.74-5.12,16.81,16.81,0,0,1,5.73.95,11.28,11.28,0,0,1,4.51,3,14.3,14.3,0,0,1,3,5.18A23.54,23.54,0,0,1,316.59,60V77.49Z"/><path class="c" d="M350,77.49V60a19.91,19.91,0,0,0-.73-5.79,10,10,0,0,0-2.1-3.87,8,8,0,0,0-3.26-2.17,12.52,12.52,0,0,0-4.21-.67,10.13,10.13,0,0,0-7.35,2.74q-2.84,2.75-2.84,8.91V77.49h-4.51V44.12h4.51v4.33a13.29,13.29,0,0,1,10.74-5.12,16.81,16.81,0,0,1,5.73.95,11.28,11.28,0,0,1,4.51,3,14.3,14.3,0,0,1,3,5.18A23.54,23.54,0,0,1,354.47,60V77.49Z"/><path class="c" d="M366.06,62.3a11.32,11.32,0,0,0,1.22,4.61,13.11,13.11,0,0,0,2.87,3.78,13.26,13.26,0,0,0,4.06,2.53,13,13,0,0,0,4.85.91,12.69,12.69,0,0,0,7-2.07,11.68,11.68,0,0,0,4.61-5.55h4.7A16.1,16.1,0,0,1,393,71a18.55,18.55,0,0,1-3.72,3.75,18.16,18.16,0,0,1-4.7,2.56,15.57,15.57,0,0,1-5.43.95,17.37,17.37,0,0,1-6.92-1.37,17.47,17.47,0,0,1-9.33-9.33,17.39,17.39,0,0,1-1.37-6.92,17.18,17.18,0,0,1,17.32-17.32,17.87,17.87,0,0,1,6.89,1.31,16.18,16.18,0,0,1,5.52,3.75,17.11,17.11,0,0,1,3.66,5.95,22.63,22.63,0,0,1,1.31,8Zm25.68-4.09a14,14,0,0,0-4.61-7.87,12.59,12.59,0,0,0-8.33-2.87,13.07,13.07,0,0,0-4.48.76,11.82,11.82,0,0,0-3.75,2.2,13,13,0,0,0-2.78,3.42,14.73,14.73,0,0,0-1.62,4.36Z"/><path class="c" d="M436.39,67.67q-3.05,5.73-7.11,8.17A17.58,17.58,0,0,1,420,78.28a19,19,0,0,1-7.17-1.34,17.39,17.39,0,0,1-9.61-9.3,17.23,17.23,0,0,1,3.78-19.28,18.19,18.19,0,0,1,12.69-5,18.74,18.74,0,0,1,5.37.76,18.21,18.21,0,0,1,4.73,2.17,16.83,16.83,0,0,1,6.5,8h-5.06a13.9,13.9,0,0,0-4.91-5,13.3,13.3,0,0,0-16.07,2.13,13.51,13.51,0,0,0-2.81,4.24,13.27,13.27,0,0,0-1,5.25,13.18,13.18,0,0,0,3.9,9.42,13.59,13.59,0,0,0,4.27,2.84,13.25,13.25,0,0,0,5.25,1A12.23,12.23,0,0,0,426,72.64a18.19,18.19,0,0,0,5.25-5Z"/><path class="c" d="M451.89,48.21V77.49h-4.51V48.21h-7.2V44.12h7.2V32.41h4.51V44.12h7.5v4.09Z"/><path class="a" d="M184.22,44.76h0a24.63,24.63,0,0,0-4.82-7.57,22.2,22.2,0,0,0-16.58-7L179.31,7H164.71L145.39,34.43c-1.57,2.2-2.87,4.18-3.86,5.89a36,36,0,0,0-2.44,4.93,23.82,23.82,0,0,0-1.3,4.56,27.11,27.11,0,0,0-.38,4.67A24.2,24.2,0,0,0,139.29,64a23.44,23.44,0,0,0,13,12.73A25.6,25.6,0,0,0,162,78.6a24.74,24.74,0,0,0,9.56-1.83,23,23,0,0,0,12.71-13A26.3,26.3,0,0,0,186,54.07,24.47,24.47,0,0,0,184.22,44.76ZM162,67a12.34,12.34,0,0,1-4.88-.95,11.59,11.59,0,0,1-3.86-2.64,11.88,11.88,0,0,1-2.56-4,14.35,14.35,0,0,1-.93-5.25,12.42,12.42,0,0,1,.94-4.88,12.83,12.83,0,0,1,2.59-3.95,11.59,11.59,0,0,1,3.79-2.6,11.83,11.83,0,0,1,4.74-.94,12.53,12.53,0,0,1,4.86.91,10.67,10.67,0,0,1,3.69,2.53,11.86,11.86,0,0,1,2.45,4,14.39,14.39,0,0,1,.9,5.15,14.62,14.62,0,0,1-.9,5.23,11.84,11.84,0,0,1-2.44,4,11.22,11.22,0,0,1-3.7,2.59A11.37,11.37,0,0,1,162,67Z"/><path class="c" d="M78.45,65a21.52,21.52,0,0,1-20,12.75C46.63,77.79,37,68.71,37,57.5s9.63-20.29,21.5-20.29a22,22,0,0,1,15.69,6.45L82.66,33A36.54,36.54,0,0,0,58.5,24C38.89,24,23,39,23,57.5S38.89,91,58.5,91A35.79,35.79,0,0,0,90,72.92Z"/><polygon class="d" points="147.29 97.15 143.51 89.7 142.04 89.7 146.64 98.56 146.64 103 147.98 103 147.98 98.56 152.62 89.7 151.16 89.7 147.29 97.15"/><path class="d" d="M162.69,94.39a4.79,4.79,0,0,0-1.61-1.08,5.61,5.61,0,0,0-4.1,0,5,5,0,0,0-1.64,1.08A5.11,5.11,0,0,0,154.26,96a5.05,5.05,0,0,0-.4,2,5.39,5.39,0,0,0,.4,2.09,5.05,5.05,0,0,0,1.1,1.66,4.92,4.92,0,0,0,1.67,1.09,5.62,5.62,0,0,0,2.11.39,5.09,5.09,0,0,0,2-.39,4.76,4.76,0,0,0,1.58-1.07,4.91,4.91,0,0,0,1-1.63,5.74,5.74,0,0,0,0-4.12A5.08,5.08,0,0,0,162.69,94.39Zm-.18,5.29a3.86,3.86,0,0,1-.76,1.23,3.39,3.39,0,0,1-1.16.81,3.76,3.76,0,0,1-1.48.29,4.06,4.06,0,0,1-1.57-.3,3.66,3.66,0,0,1-1.23-.82,3.71,3.71,0,0,1-.8-1.25,4.3,4.3,0,0,1-.29-1.59,4.11,4.11,0,0,1,.29-1.56,3.76,3.76,0,0,1,.8-1.23,3.7,3.7,0,0,1,1.22-.82,3.83,3.83,0,0,1,1.51-.3,3.77,3.77,0,0,1,1.5.3,3.46,3.46,0,0,1,1.19.83,4,4,0,0,1,.78,1.26,4.3,4.3,0,0,1,.29,1.59A4.23,4.23,0,0,1,162.51,99.68Z"/><path class="d" d="M173.82,98.21a5.83,5.83,0,0,1-.23,1.73,3.2,3.2,0,0,1-.63,1.18,2.45,2.45,0,0,1-1,.67,3.43,3.43,0,0,1-1.24.22,2.82,2.82,0,0,1-2.2-.83,4,4,0,0,1-.76-2.72V93.15h-1.33v5.31a7.06,7.06,0,0,0,.3,2.2,3.86,3.86,0,0,0,.85,1.48,3.23,3.23,0,0,0,1.32.84,5.33,5.33,0,0,0,1.71.26,3.87,3.87,0,0,0,1.91-.42,3.29,3.29,0,0,0,1.26-1.34V103h1.33V93.15h-1.33Z"/><path class="d" d="M179.21,94.56v-1.4h-1.33V103h1.33V97.26a2.73,2.73,0,0,1,2.79-3V92.92a3.79,3.79,0,0,0-1.74.44A2.72,2.72,0,0,0,179.21,94.56Z"/><path class="d" d="M193.95,89.7,188.24,103h1.4l1.94-4.48h6.19l1.93,4.48h1.46l-5.72-13.3Zm-1.85,7.61,2.61-6.1,2.56,6.1Z"/><path class="d" d="M210.47,94.08a3.33,3.33,0,0,0-1.33-.88,5,5,0,0,0-1.69-.28,3.92,3.92,0,0,0-3.17,1.51V93.15h-1.33V103h1.33V97.58a3.53,3.53,0,0,1,.84-2.63,3,3,0,0,1,2.17-.81,3.7,3.7,0,0,1,1.24.2,2.38,2.38,0,0,1,1,.64,3,3,0,0,1,.62,1.14,5.87,5.87,0,0,1,.22,1.71V103h1.33V97.83a6.94,6.94,0,0,0-.32-2.22A4.22,4.22,0,0,0,210.47,94.08Z"/><path class="d" d="M218,97.65l-.88-.36-.5-.21-.27-.13-.2-.1a1.4,1.4,0,0,1-.9-1.29,1.41,1.41,0,0,1,1.42-1.42,1.47,1.47,0,0,1,1,.37,1.39,1.39,0,0,1,.4,1.07h1.35a2.8,2.8,0,0,0-.21-1.09,2.41,2.41,0,0,0-.58-.85,2.64,2.64,0,0,0-.88-.54,3.08,3.08,0,0,0-1.1-.19,2.94,2.94,0,0,0-1.11.21,2.72,2.72,0,0,0-.89.58,2.55,2.55,0,0,0-.58.88,2.93,2.93,0,0,0-.21,1.11,2.3,2.3,0,0,0,.74,1.76l.25.23a1.46,1.46,0,0,0,.29.18l.47.21.81.33c.36.14.66.28.9.4a2.5,2.5,0,0,1,.58.39,1.22,1.22,0,0,1,.32.47,1.81,1.81,0,0,1,.1.64,1.69,1.69,0,0,1-.47,1.23,1.59,1.59,0,0,1-1.19.48,1.85,1.85,0,0,1-1.34-.49,1.88,1.88,0,0,1-.51-1.41h-1.31a3,3,0,0,0,.87,2.29A3.49,3.49,0,0,0,218,103a2.78,2.78,0,0,0,.94-.63,2.89,2.89,0,0,0,.62-1,3.32,3.32,0,0,0,.23-1.23A2.55,2.55,0,0,0,218,97.65Z"/><polygon class="d" points="231.01 101.4 228.69 94.36 227.59 94.36 225.27 101.4 222.13 93.15 220.8 93.15 224.56 103 226 103 228.13 96.47 230.27 103 231.69 103 235.51 93.15 234.21 93.15 231.01 101.4"/><path class="d" d="M246.7,96.17a5,5,0,0,0-1.08-1.75A4.76,4.76,0,0,0,244,93.31a5.28,5.28,0,0,0-2-.39A5.07,5.07,0,0,0,236.84,98a5.13,5.13,0,0,0,.41,2,5.15,5.15,0,0,0,2.75,2.75,5.12,5.12,0,0,0,2,.41,4.6,4.6,0,0,0,1.6-.28,5.33,5.33,0,0,0,1.39-.76,5.5,5.5,0,0,0,1.1-1.11,4.74,4.74,0,0,0,.7-1.33h-1.39a3.45,3.45,0,0,1-1.36,1.64A3.74,3.74,0,0,1,242,102a3.82,3.82,0,0,1-1.43-.27,3.92,3.92,0,0,1-1.2-.75,3.86,3.86,0,0,1-.85-1.12,3.33,3.33,0,0,1-.36-1.36h8.91A6.67,6.67,0,0,0,246.7,96.17Zm-8.49,1.14a4.33,4.33,0,0,1,.48-1.29,3.82,3.82,0,0,1,.82-1,3.48,3.48,0,0,1,1.11-.65,3.84,3.84,0,0,1,1.32-.22,3.71,3.71,0,0,1,2.46.85,4.13,4.13,0,0,1,1.36,2.32Z"/><path class="d" d="M250.7,94.56v-1.4h-1.33V103h1.33V97.26a2.73,2.73,0,0,1,2.79-3V92.92a3.79,3.79,0,0,0-1.74.44A2.72,2.72,0,0,0,250.7,94.56Z"/><polygon class="d" points="263.21 89.7 261.88 89.7 261.88 93.15 259.75 93.15 259.75 94.36 261.88 94.36 261.88 103 263.21 103 263.21 94.36 265.42 94.36 265.42 93.15 263.21 93.15 263.21 89.7"/><path class="d" d="M275.67,94.39a4.79,4.79,0,0,0-1.61-1.08,5.61,5.61,0,0,0-4.1,0,5,5,0,0,0-1.64,1.08A5.11,5.11,0,0,0,267.24,96a5.05,5.05,0,0,0-.4,2,5.39,5.39,0,0,0,.4,2.09,5.05,5.05,0,0,0,1.1,1.66,4.92,4.92,0,0,0,1.67,1.09,5.62,5.62,0,0,0,2.11.39,5.09,5.09,0,0,0,2-.39,4.76,4.76,0,0,0,1.58-1.07,4.91,4.91,0,0,0,1-1.63,5.74,5.74,0,0,0,0-4.12A5.08,5.08,0,0,0,275.67,94.39Zm-.18,5.29a3.86,3.86,0,0,1-.76,1.23,3.39,3.39,0,0,1-1.16.81,3.76,3.76,0,0,1-1.48.29,4.06,4.06,0,0,1-1.57-.3,3.66,3.66,0,0,1-1.23-.82,3.71,3.71,0,0,1-.8-1.25A4.3,4.3,0,0,1,268.2,98a4.11,4.11,0,0,1,.29-1.56,3.76,3.76,0,0,1,.8-1.23,3.7,3.7,0,0,1,1.22-.82,3.83,3.83,0,0,1,1.51-.3,3.77,3.77,0,0,1,1.5.3,3.46,3.46,0,0,1,1.19.83,4,4,0,0,1,.78,1.26,4.3,4.3,0,0,1,.29,1.59A4.23,4.23,0,0,1,275.49,99.68Z"/><polygon class="d" points="285.13 103 292.41 103 292.41 101.79 286.47 101.79 286.47 96.88 292.21 96.88 292.21 95.67 286.47 95.67 286.47 90.9 292.41 90.9 292.41 89.7 285.13 89.7 285.13 103"/><polygon class="d" points="298.81 101.43 295.36 93.15 294.01 93.15 298.15 103 299.55 103 303.69 93.15 302.34 93.15 298.81 101.43"/><path class="d" d="M314.9,96.17a5,5,0,0,0-1.08-1.75,4.76,4.76,0,0,0-1.63-1.11,5.28,5.28,0,0,0-2-.39A5.07,5.07,0,0,0,305,98a5.13,5.13,0,0,0,.41,2,5.15,5.15,0,0,0,2.75,2.75,5.12,5.12,0,0,0,2,.41,4.6,4.6,0,0,0,1.6-.28,5.33,5.33,0,0,0,1.39-.76,5.5,5.5,0,0,0,1.1-1.11,4.74,4.74,0,0,0,.7-1.33h-1.39a3.45,3.45,0,0,1-1.36,1.64,3.74,3.74,0,0,1-2.08.61,3.82,3.82,0,0,1-1.43-.27,3.92,3.92,0,0,1-1.2-.75,3.86,3.86,0,0,1-.85-1.12,3.33,3.33,0,0,1-.36-1.36h8.91A6.67,6.67,0,0,0,314.9,96.17Zm-8.49,1.14a4.33,4.33,0,0,1,.48-1.29,3.82,3.82,0,0,1,.82-1,3.48,3.48,0,0,1,1.11-.65,3.84,3.84,0,0,1,1.32-.22,3.71,3.71,0,0,1,2.46.85A4.13,4.13,0,0,1,314,97.31Z"/><path class="d" d="M318.9,94.56v-1.4h-1.33V103h1.33V97.26a2.73,2.73,0,0,1,2.79-3V92.92a3.79,3.79,0,0,0-1.74.44A2.72,2.72,0,0,0,318.9,94.56Z"/><polygon class="d" points="327.04 101 323.92 93.15 322.46 93.15 326.28 102.68 324.68 106.46 326.1 106.46 331.79 93.15 330.37 93.15 327.04 101"/><polygon class="d" points="336.07 89.7 334.74 89.7 334.74 93.15 332.62 93.15 332.62 94.36 334.74 94.36 334.74 103 336.07 103 336.07 94.36 338.29 94.36 338.29 93.15 336.07 93.15 336.07 89.7"/><path class="d" d="M347.63,94.08a3.5,3.5,0,0,0-1.34-.87,5,5,0,0,0-1.74-.29,4.15,4.15,0,0,0-1.83.39,3.29,3.29,0,0,0-1.31,1.13V89.7h-1.33V103h1.33V97.6a4.82,4.82,0,0,1,.23-1.56,2.89,2.89,0,0,1,.63-1.08,2.48,2.48,0,0,1,1-.62,3.51,3.51,0,0,1,1.2-.2,2.94,2.94,0,0,1,2.2.86,3.74,3.74,0,0,1,.85,2.7V103h1.33V97.71a6.67,6.67,0,0,0-.31-2.14A4,4,0,0,0,347.63,94.08Z"/><rect class="d" x="351.52" y="89.81" width="1.33" height="2.27"/><rect class="d" x="351.52" y="93.15" width="1.33" height="9.85"/><path class="d" d="M363.09,94.08a3.33,3.33,0,0,0-1.33-.88,5,5,0,0,0-1.69-.28,3.92,3.92,0,0,0-3.17,1.51V93.15h-1.33V103h1.33V97.58a3.53,3.53,0,0,1,.84-2.63,3,3,0,0,1,2.17-.81,3.7,3.7,0,0,1,1.24.2,2.38,2.38,0,0,1,1,.64,3,3,0,0,1,.62,1.14,5.87,5.87,0,0,1,.22,1.71V103h1.33V97.83a6.94,6.94,0,0,0-.32-2.22A4.22,4.22,0,0,0,363.09,94.08Z"/><path class="d" d="M375.51,94.9a4.91,4.91,0,0,0-1.68-1.5,4.69,4.69,0,0,0-2.17-.48,5,5,0,0,0-2,.4,4.92,4.92,0,0,0-1.59,1.09A5.06,5.06,0,0,0,367,96.05a5.45,5.45,0,0,0-.39,2.07,5.12,5.12,0,0,0,.4,2,5,5,0,0,0,1.09,1.62,5.16,5.16,0,0,0,3.65,1.48,3.9,3.9,0,0,0,3.76-2.23v.67a4.3,4.3,0,0,1-.91,3,3.46,3.46,0,0,1-2.71,1,4.93,4.93,0,0,1-1.12-.12,3.07,3.07,0,0,1-.94-.39,3.48,3.48,0,0,1-.81-.72,7.49,7.49,0,0,1-.76-1.12H367a4.93,4.93,0,0,0,1.81,2.65,5.26,5.26,0,0,0,3.14.91,5.7,5.7,0,0,0,2.33-.46,4.06,4.06,0,0,0,2.38-2.85,10.48,10.48,0,0,0,.21-2.32V93.15h-1.33Zm-.29,4.66a4.09,4.09,0,0,1-.79,1.29,3.57,3.57,0,0,1-2.68,1.16,3.68,3.68,0,0,1-2.7-1.14,3.88,3.88,0,0,1-.79-1.26A4.3,4.3,0,0,1,368,98a4.23,4.23,0,0,1,.28-1.56,3.53,3.53,0,0,1,2-2,3.89,3.89,0,0,1,1.5-.29,3.72,3.72,0,0,1,1.48.3,3.8,3.8,0,0,1,1.21.81,3.7,3.7,0,0,1,.8,1.21,3.89,3.89,0,0,1,.29,1.5A4.38,4.38,0,0,1,375.22,99.56Z"/><polygon class="d" points="386.56 89.7 385.23 89.7 385.23 103 392.07 103 392.07 101.79 386.56 101.79 386.56 89.7"/><path class="d" d="M402.21,94.39a4.79,4.79,0,0,0-1.61-1.08,5.61,5.61,0,0,0-4.09,0,5,5,0,0,0-1.64,1.08A5.1,5.1,0,0,0,393.78,96a5,5,0,0,0-.4,2,5.38,5.38,0,0,0,.4,2.09,5,5,0,0,0,1.1,1.66,4.91,4.91,0,0,0,1.67,1.09,5.62,5.62,0,0,0,2.12.39,5.1,5.1,0,0,0,2-.39,4.78,4.78,0,0,0,1.58-1.07,4.92,4.92,0,0,0,1-1.63,5.74,5.74,0,0,0,0-4.12A5.09,5.09,0,0,0,402.21,94.39ZM402,99.68a3.86,3.86,0,0,1-.77,1.23,3.38,3.38,0,0,1-1.16.81,3.75,3.75,0,0,1-1.48.29,4.06,4.06,0,0,1-1.57-.3,3.66,3.66,0,0,1-1.23-.82,3.7,3.7,0,0,1-.8-1.25,4.31,4.31,0,0,1-.29-1.59,4.12,4.12,0,0,1,.29-1.56,3.75,3.75,0,0,1,.8-1.23,3.7,3.7,0,0,1,1.21-.82,3.83,3.83,0,0,1,1.51-.3,3.77,3.77,0,0,1,1.5.3,3.46,3.46,0,0,1,1.19.83,4,4,0,0,1,.78,1.26,4.31,4.31,0,0,1,.29,1.59A4.24,4.24,0,0,1,402,99.68Z"/><path class="d" d="M414.52,94.9a4.93,4.93,0,0,0-1.68-1.5,4.69,4.69,0,0,0-2.17-.48,5,5,0,0,0-2,.4,4.92,4.92,0,0,0-1.59,1.09A5.08,5.08,0,0,0,406,96.05a5.46,5.46,0,0,0-.39,2.07,5.12,5.12,0,0,0,.4,2,5,5,0,0,0,1.09,1.62,5.16,5.16,0,0,0,3.64,1.48,3.9,3.9,0,0,0,3.76-2.23v.67a4.31,4.31,0,0,1-.91,3,3.47,3.47,0,0,1-2.71,1,4.93,4.93,0,0,1-1.12-.12,3.07,3.07,0,0,1-.94-.39,3.5,3.5,0,0,1-.81-.72,7.49,7.49,0,0,1-.76-1.12H406a4.93,4.93,0,0,0,1.81,2.65,5.26,5.26,0,0,0,3.14.91,5.7,5.7,0,0,0,2.33-.46,4.07,4.07,0,0,0,2.38-2.85,10.54,10.54,0,0,0,.21-2.32V93.15h-1.33Zm-.29,4.66a4.09,4.09,0,0,1-.79,1.29,3.57,3.57,0,0,1-2.68,1.16,3.68,3.68,0,0,1-2.7-1.14,3.88,3.88,0,0,1-.79-1.26A4.31,4.31,0,0,1,407,98a4.24,4.24,0,0,1,.28-1.56,3.53,3.53,0,0,1,2-2,3.89,3.89,0,0,1,1.5-.29,3.72,3.72,0,0,1,1.48.3,3.8,3.8,0,0,1,1.21.81,3.68,3.68,0,0,1,.8,1.21,3.89,3.89,0,0,1,.29,1.5A4.38,4.38,0,0,1,414.23,99.56Z"/><rect class="d" x="418.57" y="89.81" width="1.33" height="2.27"/><rect class="d" x="418.57" y="93.15" width="1.33" height="9.85"/><path class="d" d="M426.27,97.65l-.88-.36-.5-.21-.27-.13-.2-.1a1.4,1.4,0,0,1-.9-1.29,1.41,1.41,0,0,1,1.42-1.42,1.47,1.47,0,0,1,1,.37,1.39,1.39,0,0,1,.4,1.07h1.35a2.8,2.8,0,0,0-.21-1.09,2.41,2.41,0,0,0-.58-.85,2.64,2.64,0,0,0-.88-.54,3.08,3.08,0,0,0-1.1-.19,2.93,2.93,0,0,0-1.11.21,2.73,2.73,0,0,0-.89.58,2.56,2.56,0,0,0-.58.88,2.93,2.93,0,0,0-.21,1.11,2.3,2.3,0,0,0,.74,1.76l.25.23a1.46,1.46,0,0,0,.29.18l.47.21.81.33c.36.14.66.28.9.4a2.47,2.47,0,0,1,.58.39,1.22,1.22,0,0,1,.32.47,1.8,1.8,0,0,1,.1.64,1.68,1.68,0,0,1-.47,1.23A1.59,1.59,0,0,1,425,102a1.85,1.85,0,0,1-1.34-.49,1.87,1.87,0,0,1-.51-1.41h-1.31a3,3,0,0,0,.87,2.29,3.49,3.49,0,0,0,3.51.62,2.78,2.78,0,0,0,.95-.63,2.91,2.91,0,0,0,.62-1,3.33,3.33,0,0,0,.22-1.23A2.55,2.55,0,0,0,426.27,97.65Z"/><polygon class="d" points="432.59 89.7 431.25 89.7 431.25 93.15 429.13 93.15 429.13 94.36 431.25 94.36 431.25 103 432.59 103 432.59 94.36 434.8 94.36 434.8 93.15 432.59 93.15 432.59 89.7"/><rect class="d" x="436.6" y="89.81" width="1.33" height="2.27"/><rect class="d" x="436.6" y="93.15" width="1.33" height="9.85"/><path class="d" d="M447.4,101.57a3.6,3.6,0,0,1-1.82.44,3.92,3.92,0,0,1-1.55-.31,4,4,0,0,1-1.26-.84,3.89,3.89,0,0,1-1.15-2.78,3.91,3.91,0,0,1,.31-1.55,4,4,0,0,1,.83-1.25,4,4,0,0,1,4.74-.63,4.1,4.1,0,0,1,1.45,1.49h1.49a5,5,0,0,0-1.92-2.36,5.36,5.36,0,0,0-1.39-.64,5.54,5.54,0,0,0-1.58-.22,5.38,5.38,0,0,0-3.74,1.48,5.15,5.15,0,0,0-1.12,5.69,5.13,5.13,0,0,0,2.83,2.75,5.61,5.61,0,0,0,2.12.4,5.18,5.18,0,0,0,2.73-.72,6,6,0,0,0,2.1-2.41h-1.51A5.34,5.34,0,0,1,447.4,101.57Z"/><path class="d" d="M456.4,97.65l-.88-.36-.5-.21-.27-.13-.2-.1a1.4,1.4,0,0,1-.9-1.29,1.41,1.41,0,0,1,1.42-1.42,1.47,1.47,0,0,1,1,.37,1.39,1.39,0,0,1,.4,1.07h1.35a2.8,2.8,0,0,0-.21-1.09,2.41,2.41,0,0,0-.58-.85,2.64,2.64,0,0,0-.88-.54,3.08,3.08,0,0,0-1.1-.19,2.93,2.93,0,0,0-1.11.21,2.73,2.73,0,0,0-.89.58,2.56,2.56,0,0,0-.58.88,2.93,2.93,0,0,0-.21,1.11,2.3,2.3,0,0,0,.74,1.76l.25.23a1.46,1.46,0,0,0,.29.18l.47.21.81.33c.36.14.66.28.9.4a2.47,2.47,0,0,1,.58.39,1.22,1.22,0,0,1,.32.47,1.8,1.8,0,0,1,.1.64,1.68,1.68,0,0,1-.47,1.23,1.59,1.59,0,0,1-1.19.48,1.85,1.85,0,0,1-1.34-.49,1.87,1.87,0,0,1-.51-1.41h-1.31a3,3,0,0,0,.87,2.29,3.49,3.49,0,0,0,3.51.62,2.78,2.78,0,0,0,.95-.63,2.91,2.91,0,0,0,.62-1,3.33,3.33,0,0,0,.22-1.23A2.55,2.55,0,0,0,456.4,97.65Z"/></svg>