<svg xmlns="http://www.w3.org/2000/svg" xmlns:xlink="http://www.w3.org/1999/xlink" viewBox="0 0 451.12 114.13"><defs><style>.a{fill:none;}.b{clip-path:url(#a);}.c{fill:url(#b);}.d{fill:url(#c);}.e{fill:url(#d);}.f{fill:url(#e);}.g{fill:#070707;}</style><clipPath id="a"><path class="a" d="M72.48,41.85,49.42,28.53,4.93,2.85C2.46,1.42,0,2.28,0,5.26V109.91c0,2.23,1.76,3.2,3.9,2L49.42,85.59,72.48,72.28l22.17-12.8c2.6-1.5,2.35-3.56.16-4.75S72.48,41.85,72.48,41.85Z"/></clipPath><linearGradient id="b" x1="28.57" y1="0.41" x2="28.57" y2="113.72" gradientUnits="userSpaceOnUse"><stop offset="0" stop-color="#0778b1"/><stop offset="0.41" stop-color="#469fb6"/><stop offset="0.81" stop-color="#7dc2bb"/><stop offset="1" stop-color="#93cfbd"/></linearGradient><linearGradient id="c" y1="28.53" x2="72.48" y2="28.53" gradientUnits="userSpaceOnUse"><stop offset="0" stop-color="#54bcaa"/><stop offset="1" stop-color="#e4eb98"/></linearGradient><linearGradient id="d" x1="36.24" y1="57.06" x2="36.24" y2="114.13" gradientUnits="userSpaceOnUse"><stop offset="0" stop-color="#e7392f"/><stop offset="0.21" stop-color="#d23a46"/><stop offset="0.74" stop-color="#a03d7d"/><stop offset="1" stop-color="#8c3e93"/></linearGradient><linearGradient id="e" x1="77.98" y1="41.85" x2="77.98" y2="72.28" gradientUnits="userSpaceOnUse"><stop offset="0" stop-color="#f08975"/><stop offset="0.64" stop-color="#f8b86f"/><stop offset="1" stop-color="#fbce6d"/></linearGradient></defs><title>googlePlay_btn</title><g class="b"><polygon class="c" points="0 0.41 0 57.06 0 113.72 57.13 57.06 0 0.41"/><polygon class="d" points="72.48 41.85 49.42 28.53 0 0 0 0.41 57.13 57.06 72.48 41.85"/><polygon class="e" points="0 113.72 0 114.13 49.42 85.59 72.48 72.28 57.13 57.06 0 113.72"/><polygon class="f" points="72.48 41.85 57.13 57.06 72.48 72.28 98.83 57.06 72.48 41.85"/></g><path class="g" d="M359.69,79.21A14.25,14.25,0,0,1,353.82,78a11.07,11.07,0,0,1-4.47-3.65H349a44.24,44.24,0,0,1,.36,5.47V93.4h-5V45.66h4.06l.69,4.51h.24a11.61,11.61,0,0,1,4.48-3.91,13.62,13.62,0,0,1,5.86-1.2q6.56,0,10.12,4.48t3.56,12.57q0,8.12-3.62,12.61A12.21,12.21,0,0,1,359.69,79.21ZM359,49.3q-5.05,0-7.3,2.8T349.35,61v1.11q0,6.95,2.32,9.94t7.42,3a7.73,7.73,0,0,0,6.69-3.46q2.42-3.46,2.42-9.53t-2.42-9.46A8,8,0,0,0,359,49.3Z"/><path class="g" d="M384.93,78.61h-5V31.83h5Z"/><path class="g" d="M413.62,78.61l-1-4.69h-.24a13.83,13.83,0,0,1-4.92,4.19,15,15,0,0,1-6.12,1.1q-4.9,0-7.68-2.53a9.21,9.21,0,0,1-2.78-7.18q0-10,16-10.46l5.59-.18v-2q0-3.88-1.67-5.73t-5.34-1.85a21.74,21.74,0,0,0-9.32,2.53l-1.53-3.82a23.5,23.5,0,0,1,5.34-2.07,23.13,23.13,0,0,1,5.82-.75q5.89,0,8.73,2.62t2.84,8.39V78.61Zm-11.27-3.52a10.14,10.14,0,0,0,7.32-2.55,9.46,9.46,0,0,0,2.66-7.16v-3l-5,.21q-6,.21-8.58,1.85a5.58,5.58,0,0,0-2.63,5.1,5.13,5.13,0,0,0,1.64,4.12A6.8,6.8,0,0,0,402.35,75.09Z"/><path class="g" d="M420.22,45.66h5.35l7.22,18.79a71.8,71.8,0,0,1,2.95,9.29H436q.39-1.54,1.64-5.25t8.16-22.83h5.35L437,83.18q-2.1,5.56-4.92,7.89a10.46,10.46,0,0,1-6.9,2.33,20.17,20.17,0,0,1-4.51-.51v-4a17.42,17.42,0,0,0,3.7.36q5.14,0,7.34-5.77l1.83-4.69Z"/><path class="g" d="M267.24,48.72A11.62,11.62,0,0,1,272.14,58c0,5.1-2.89,7.51-5.79,9.79-.9.89-1.93,1.86-1.93,3.38a3.78,3.78,0,0,0,1.79,3l2.48,1.93c3,2.55,5.79,4.9,5.79,9.65,0,6.48-6.27,13-18.12,13-10,0-14.82-4.75-14.82-9.86,0-2.48,1.24-6,5.31-8.41,4.27-2.62,10.06-3,13.16-3.17-1-1.24-2.07-2.55-2.07-4.68a6.22,6.22,0,0,1,.69-2.69c-.76.07-1.52.14-2.21.14-7.3,0-11.44-5.44-11.44-10.82A12.4,12.4,0,0,1,249.39,50c3.93-3.24,8.62-3.79,12.34-3.79h14.19l-4.41,2.48Zm-4.89,30.6a10.73,10.73,0,0,0-1.58-.07,27.52,27.52,0,0,0-7.24,1.11c-1.52.55-5.93,2.2-5.93,7.1s4.76,8.41,12.13,8.41c6.61,0,10.13-3.18,10.13-7.45C269.86,84.9,267.59,83,262.35,79.32Zm2-13.1a7,7,0,0,0,1.72-5c0-5-3-12.68-8.68-12.68a6.44,6.44,0,0,0-4.83,2.28,8,8,0,0,0-1.52,5.1c0,4.62,2.69,12.27,8.62,12.27A7.06,7.06,0,0,0,264.35,66.23Z"/><path class="g" d="M223.86,78.22A16.24,16.24,0,0,1,207.07,62c0-9,7.36-16.72,17.82-16.72A16.09,16.09,0,0,1,241.33,61.5C241.33,69.62,235.07,78.22,223.86,78.22Zm8.6-5.57A12.44,12.44,0,0,0,234.52,65c0-6.06-2.89-17.61-11.42-17.61a9.58,9.58,0,0,0-6.19,2.34c-2.68,2.41-3.17,5.43-3.17,8.4,0,6.81,3.37,18,11.7,18A8.79,8.79,0,0,0,232.46,72.65Z"/><path class="g" d="M186.56,78.22A16.24,16.24,0,0,1,169.77,62c0-9,7.36-16.72,17.82-16.72A16.09,16.09,0,0,1,204,61.5C204,69.62,197.78,78.22,186.56,78.22Zm8.6-5.57A12.46,12.46,0,0,0,197.23,65c0-6.06-2.89-17.61-11.42-17.61a9.58,9.58,0,0,0-6.19,2.34c-2.68,2.41-3.16,5.43-3.16,8.4,0,6.81,3.37,18,11.7,18A8.8,8.8,0,0,0,195.16,72.65Z"/><path class="g" d="M164.51,77.14l-9.89,2.28a73.27,73.27,0,0,1-11.41,1.17c-19.1,0-26.36-14-26.36-25,0-13.42,10.31-25.87,27.95-25.87a39.85,39.85,0,0,1,10.58,1.45,27,27,0,0,1,9.13,4.29l-5.74,5.47-2.42.55,1.73-2.77c-2.35-2.28-6.64-6.5-14.8-6.5-10.93,0-19.16,8.3-19.16,20.41,0,13,9.41,25.25,24.49,25.25a20.6,20.6,0,0,0,8.79-1.73V65l-10.44.55,5.53-3h14.67l-1.8,1.73a1.62,1.62,0,0,0-.69,1.11c-.07.62-.14,2.63-.14,3.32Z"/><path class="g" d="M289.11,75.15c-2.28-.21-2.76-.62-2.76-3.32V32.67c0-.15,0-.3,0-.45.28-2.42,1-2.84,3.12-4.08h-9.9l-5.19,2.49h5.29V73.35c0,1.38-.27,1.59-1.87,3.66h12.25l2.56-1.52C291.46,75.36,290.29,75.29,289.11,75.15Z"/><path class="g" d="M317.26,75.79c-.75.41-1.51.9-2.26,1.24a16,16,0,0,1-6.67,1.31,14.68,14.68,0,0,1-9.14-2.68c-4.87-3.44-7-9.35-7-14.5,0-10.65,8.66-15.87,15.73-15.87A13.36,13.36,0,0,1,315,47.21a11.37,11.37,0,0,1,4.8,6.8l-16.14,6.53-5.29.41c1.71,8.72,7.62,13.8,14.15,13.8a17.75,17.75,0,0,0,8.38-2.4ZM310.8,55.31c1.3-.48,2-.89,2-1.85,0-2.75-3.09-5.91-6.8-5.91-2.75,0-7.9,2.13-7.9,9.55,0,1.17.14,2.4.21,3.64Z"/><path class="g" d="M323.89,45.75v4.53h-.55V45.75h-1.5v-.47h3.55v.47Z"/><path class="g" d="M330.07,50.29V45.71h0l-1.4,4.58h-.43l-1.41-4.58h0v4.58h-.5v-5h.86l1.27,4h0l1.25-4h.87v5Z"/><path class="g" d="M130.59,16.22h-3.44a22.76,22.76,0,0,0-1-4h-5a20.74,20.74,0,0,0-1,4H117q0-.42,2.51-6.87A53.94,53.94,0,0,0,122,2.23H126a59.21,59.21,0,0,0,2.27,7A61.5,61.5,0,0,1,130.59,16.22Zm-5-6.07a60.56,60.56,0,0,1-1.84-6h-.17q0,.42-1.9,6Z"/><path class="g" d="M144.44,16.22h-2.65q0-.44-3-4.65-3.09-4.44-3.52-6.07h-.17a37.91,37.91,0,0,1,.27,4.25q0,2.65.15,6.47h-2.64q.16-3.33.16-7.32t-.16-6.67h3.19q0,.57,2.65,4.54A26.76,26.76,0,0,1,142,12.5h.16a40.55,40.55,0,0,1-.26-4.3q0-2.91-.15-6h2.69q-.15,2.66-.15,6.67T144.44,16.22Z"/><path class="g" d="M160,8.74a7.92,7.92,0,0,1-2,5.33,6.83,6.83,0,0,1-5.48,2.28q-1.59,0-4.38-.13.14-3.24.14-7.32,0-3.91-.14-6.67h1.88l1.37,0,1.19,0q3.88,0,5.62,1.93A6.69,6.69,0,0,1,160,8.74Zm-2.93.46a5.18,5.18,0,0,0-1.2-3.48,4.56,4.56,0,0,0-3.67-1.41,11.3,11.3,0,0,0-1.27.1Q151,6.56,151,8.9q0,2.57.11,5.09a7.09,7.09,0,0,0,1.4.14A4.06,4.06,0,0,0,156,12.7,5.53,5.53,0,0,0,157.08,9.2Z"/><path class="g" d="M174.37,16.22h-3.18a21.13,21.13,0,0,0-1.91-4.69,2.51,2.51,0,0,0-2.15-.89h-1.19q0,2.76.1,5.58h-3q.14-3.24.14-7.32,0-3.91-.14-6.67h1.86l1.35,0,1.9,0q4.93,0,4.93,3.37a3.78,3.78,0,0,1-2.81,3.73v.16a3.36,3.36,0,0,1,1.9,1.69A37.33,37.33,0,0,1,174.37,16.22Zm-4-9.88q0-2.14-2.75-2.14a9.43,9.43,0,0,0-1.78.15q.12,1.67.12,4.34l1,0Q170.34,8.71,170.34,6.33Z"/><path class="g" d="M189.77,9a7.71,7.71,0,0,1-2,5.47,6.55,6.55,0,0,1-5,2.17,6.31,6.31,0,0,1-4.75-2,7,7,0,0,1-1.91-5.06,7.71,7.71,0,0,1,2-5.47,6.55,6.55,0,0,1,5-2.17,6.32,6.32,0,0,1,4.75,2A7,7,0,0,1,189.77,9Zm-3,.31a5.55,5.55,0,0,0-1.15-3.64,3.54,3.54,0,0,0-2.84-1.4,3.28,3.28,0,0,0-2.66,1.41,5.61,5.61,0,0,0-1.1,3.56,5.53,5.53,0,0,0,1.15,3.64,3.54,3.54,0,0,0,2.83,1.4,3.27,3.27,0,0,0,2.66-1.41A5.62,5.62,0,0,0,186.8,9.28Z"/><path class="g" d="M195.84,16.22h-3q.14-3.33.14-7.32t-.14-6.67h3q-.14,2.71-.14,6.67T195.84,16.22Z"/><path class="g" d="M211.41,8.74a7.93,7.93,0,0,1-2,5.33A6.83,6.83,0,0,1,204,16.35q-1.59,0-4.38-.13.14-3.24.14-7.32,0-3.91-.14-6.67h1.88l1.37,0,1.19,0q3.88,0,5.62,1.93A6.69,6.69,0,0,1,211.41,8.74Zm-2.93.46a5.18,5.18,0,0,0-1.2-3.48,4.56,4.56,0,0,0-3.67-1.41,11.3,11.3,0,0,0-1.27.1q.11,2.15.11,4.49,0,2.57.11,5.09a7.08,7.08,0,0,0,1.4.14,4.06,4.06,0,0,0,3.42-1.43A5.53,5.53,0,0,0,208.48,9.2Z"/><path class="g" d="M232.07,16.22h-3.44a22.7,22.7,0,0,0-1-4h-5a20.78,20.78,0,0,0-1,4h-3.23q0-.42,2.51-6.87a53.88,53.88,0,0,0,2.51-7.11h4.06a59.27,59.27,0,0,0,2.27,7A61.56,61.56,0,0,1,232.07,16.22Zm-5-6.07a60.75,60.75,0,0,1-1.84-6h-.17q0,.42-1.9,6Z"/><path class="g" d="M244.6,5.89a4.19,4.19,0,0,1-1.91,3.79A8.48,8.48,0,0,1,238,10.91c-.34,0-.58,0-.72,0q0,2,.12,5.33h-3q.14-3.1.14-7.32,0-3.87-.14-6.67h1.87l1.53,0,2,0a6.15,6.15,0,0,1,3.45.92A3.13,3.13,0,0,1,244.6,5.89Zm-2.77.59q0-2.3-3.05-2.3a8.64,8.64,0,0,0-1.61.16q.12,2,.12,4.6l.62,0Q241.82,9,241.82,6.48Z"/><path class="g" d="M257.48,5.89a4.19,4.19,0,0,1-1.91,3.79,8.48,8.48,0,0,1-4.68,1.22c-.34,0-.58,0-.72,0q0,2,.12,5.33h-3q.14-3.1.14-7.32,0-3.87-.14-6.67h1.87l1.53,0,2,0a6.15,6.15,0,0,1,3.45.92A3.13,3.13,0,0,1,257.48,5.89Zm-2.77.59q0-2.3-3.05-2.3a8.64,8.64,0,0,0-1.61.16q.12,2,.12,4.6l.62,0Q254.71,9,254.71,6.48Z"/><path class="g" d="M278.54,9a7.71,7.71,0,0,1-2,5.47,6.55,6.55,0,0,1-5,2.17,6.31,6.31,0,0,1-4.75-2,7,7,0,0,1-1.91-5.06,7.71,7.71,0,0,1,2-5.47,6.55,6.55,0,0,1,5-2.17,6.32,6.32,0,0,1,4.75,2A7,7,0,0,1,278.54,9Zm-3,.31a5.54,5.54,0,0,0-1.15-3.64,3.54,3.54,0,0,0-2.84-1.4,3.28,3.28,0,0,0-2.66,1.41,5.61,5.61,0,0,0-1.1,3.56A5.53,5.53,0,0,0,269,12.84a3.54,3.54,0,0,0,2.83,1.4,3.27,3.27,0,0,0,2.66-1.41A5.62,5.62,0,0,0,275.58,9.28Z"/><path class="g" d="M293.1,16.22h-2.65q0-.44-3-4.65Q284.4,7.13,284,5.5h-.17a37.91,37.91,0,0,1,.27,4.25q0,2.65.15,6.47h-2.64q.16-3.33.16-7.32t-.16-6.67h3.19q0,.57,2.65,4.54a26.73,26.73,0,0,1,3.24,5.73h.16a40.58,40.58,0,0,1-.26-4.3q0-2.91-.15-6h2.69Q293,4.89,293,8.9T293.1,16.22Z"/></svg>