<svg xmlns="http://www.w3.org/2000/svg" viewBox="0 0 36 58"><defs><style>.a{fill:#424a60;}.b{fill:#e7eced;}.c{fill:#262b35;}.d{fill:#0a5a6a;}.e{fill:#a0d6cc;}.f{fill:#f9c319;}</style></defs><title>home_icon_app</title><path class="a" d="M32.17,58H3.83A3.64,3.64,0,0,1,0,54.6V3.4A3.64,3.64,0,0,1,3.83,0H32.17A3.64,3.64,0,0,1,36,3.4V54.59A3.64,3.64,0,0,1,32.17,58Z"/><rect class="b" x="3" y="6" width="30" height="40"/><path class="c" d="M18,4H14a1,1,0,0,1,0-2h4a1,1,0,0,1,0,2Z"/><path class="c" d="M22,4H21a1,1,0,0,1,0-2h1a1,1,0,0,1,0,2Z"/><circle class="c" cx="17.99" cy="49.6" r="1.44"/><rect class="c" x="25.93" y="48.24" width="2.7" height="2.7" rx="0.45" ry="0.45"/><path class="c" d="M7.54,49.9l2,1.15a.35.35,0,0,0,.53-.31V48.45a.35.35,0,0,0-.53-.31l-2,1.15A.35.35,0,0,0,7.54,49.9Z"/><circle class="d" cx="18" cy="23.18" r="10.74"/><path class="e" d="M10.08,15.92l3.56,3.22,3.44-1.78-.81-4.79A10.72,10.72,0,0,0,10.08,15.92Z"/><path class="f" d="M8.12,19a10.78,10.78,0,0,0-.48,7l2.26-.72L10.45,20Z"/><path class="e" d="M9.1,29.18a10.73,10.73,0,0,0,8.61,4.73l0-3-5.8-3.32Z"/><path class="f" d="M26.88,29.21l-2.21-1.4-4,3.39.54,2.22A10.76,10.76,0,0,0,26.88,29.21Z"/><path class="e" d="M25.54,25.08l2.83.89a10.78,10.78,0,0,0-.44-6.88L25.77,20Z"/><path class="f" d="M19.82,12.59l-.41,2.94,5,2L26,16.06A10.72,10.72,0,0,0,19.82,12.59Z"/><circle class="d" cx="18" cy="23.18" r="8.92"/><path class="f" d="M17.89,21l3-4.49H18.27L14,22.9v0A4.47,4.47,0,1,0,17.89,21Zm-.21,6.83A2.36,2.36,0,1,1,20,25.45,2.36,2.36,0,0,1,17.68,27.81Z"/></svg>