<svg xmlns="http://www.w3.org/2000/svg" viewBox="0 0 57 56.05"><defs><style>.a{fill:#556080;}.b{fill:#ecf0f1;}.c{fill:#8697cb;}.d{fill:#f3d55b;}.e{fill:#71c285;}.f{fill:#d1d4d1;}.g{fill:#26b99a;}</style></defs><title>home_icon_report</title><rect class="a" x="0.95" width="55.1" height="5.7"/><rect class="b" x="2.85" y="5.7" width="51.3" height="39.9"/><path class="c" d="M34.2,41.8a1,1,0,0,1-1-.95V38a1,1,0,0,1,1.9,0v2.85A1,1,0,0,1,34.2,41.8Z"/><path class="d" d="M38,41.8a1,1,0,0,1-1-.95V34.2a1,1,0,0,1,1.9,0v6.65A1,1,0,0,1,38,41.8Z"/><path class="c" d="M41.8,41.8a1,1,0,0,1-.95-.95V36.1a1,1,0,0,1,1.9,0v4.75A1,1,0,0,1,41.8,41.8Z"/><path class="e" d="M45.6,41.8a1,1,0,0,1-1-.95V29.45a.95.95,0,1,1,1.9,0v11.4A1,1,0,0,1,45.6,41.8Z"/><path class="c" d="M49.4,41.8a1,1,0,0,1-.95-.95v-7.6a.95.95,0,0,1,1.9,0v7.6A1,1,0,0,1,49.4,41.8Z"/><path class="f" d="M19,37.05H9.5a1,1,0,1,1,0-1.9H19a1,1,0,1,1,0,1.9Z"/><path class="f" d="M23.75,40.85H9.5a.95.95,0,0,1,0-1.9H23.75a.95.95,0,0,1,0,1.9Z"/><circle class="g" cx="18.53" cy="20.42" r="9.97"/><path class="d" d="M18.06,10.46h0V20.86a0,0,0,0,0,0,0h10.4A10,10,0,0,0,18.06,10.46Z"/><path class="f" d="M44.65,17.1h-7.6a1,1,0,0,1,0-1.9h7.6a.95.95,0,0,1,0,1.9Z"/><path class="f" d="M49.4,17.1a.94.94,0,1,1,.67-.28A1,1,0,0,1,49.4,17.1Z"/><path class="f" d="M49.4,12.35H46.55a.95.95,0,0,1,0-1.9H49.4a1,1,0,0,1,0,1.9Z"/><path class="f" d="M39,12.35h-1.9a.95.95,0,0,1,0-1.9H39a1,1,0,1,1,0,1.9Z"/><path class="f" d="M42.75,12.35a1,1,0,1,1,.67-1.62,1,1,0,0,1,.28.67.94.94,0,0,1-1,.95Z"/><path class="a" d="M56.05,46.55H1a.95.95,0,1,1,0-1.9h55.1a.95.95,0,1,1,0,1.9Z"/><path class="a" d="M28.5,49.4a1,1,0,0,1-.95-.95V45.6a.95.95,0,1,1,1.9,0v2.85A1,1,0,0,1,28.5,49.4Z"/><path class="a" d="M28.5,56.05a3.8,3.8,0,1,1,3.8-3.8A3.8,3.8,0,0,1,28.5,56.05Zm0-5.7a1.9,1.9,0,1,0,1.9,1.9A1.9,1.9,0,0,0,28.5,50.35Z"/></svg>