<svg xmlns="http://www.w3.org/2000/svg" viewBox="0 0 48.9 58"><defs><style>.a{fill:#556080;}.b{fill:#465066;}.c{fill:#7383bf;}.d{fill:#efce4a;}.e{fill:#af903a;}.f{fill:#f9ee2b;}.g{fill:none;stroke:#424a60;stroke-linecap:round;stroke-linejoin:round;stroke-width:1.88px;}.h{fill:#d75a4a;}.i{fill:#57abc1;}.j{fill:#7ccbd8;}</style></defs><title>home_icon_track</title><polygon class="a" points="16.93 40.44 0 46.08 0 5.64 16.93 0 16.93 40.44"/><polygon class="b" points="48.9 38.56 32.92 47.02 32.92 8.46 48.9 0 48.9 38.56"/><path class="c" d="M29.55,30.56a.94.94,0,1,1,.36-1.85,13.23,13.23,0,0,0,3,.25V8.46L16.93,0V26.55c.59-.07,1.19-.12,1.8-.13h0a.94.94,0,0,1,0,1.88,16,16,0,0,0-1.84.15v12l16,6.58V30.85l-.4,0A15.71,15.71,0,0,1,29.55,30.56ZM27,28.91a.94.94,0,0,1-1.23.51l-.7-.31c-.93-.24-1.83-.42-2.71-.55a.94.94,0,1,1,.28-1.86c1,.15,2,.35,3,.62l.19.07s.26.13.67.3A.94.94,0,0,1,27,28.91Z"/><path class="d" d="M14.8,26.95A.94.94,0,0,0,15,28.8a1,1,0,0,0,.24,0,13.79,13.79,0,0,1,1.65-.32V26.55A15.79,15.79,0,0,0,14.8,26.95Z"/><path class="d" d="M11.1,28.54a13,13,0,0,0-3,2.65A.94.94,0,0,0,9.5,32.4a11.13,11.13,0,0,1,2.6-2.27.94.94,0,0,0-1-1.59Z"/><path class="d" d="M7.17,34.12a.94.94,0,0,0-1.25.46,15,15,0,0,0-1.21,3.85.94.94,0,0,0,.8,1.06h.13a.94.94,0,0,0,.93-.81,13.29,13.29,0,0,1,1.06-3.32A.94.94,0,0,0,7.17,34.12Z"/><path class="e" d="M44.27,12.15a1,1,0,0,0-1-.92.94.94,0,0,0-.92,1c0,.33,0,.65,0,1,0,.94,0,1.86-.08,2.72a.94.94,0,0,0,.88,1h.06a.94.94,0,0,0,.94-.88c.06-.9.09-1.86.09-2.84Q44.27,12.66,44.27,12.15Z"/><path class="e" d="M43,18.73a1,1,0,0,0-1.1.75,19.15,19.15,0,0,1-1,3.44.94.94,0,1,0,1.75.68,21.06,21.06,0,0,0,1.06-3.78A.94.94,0,0,0,43,18.73Z"/><path class="e" d="M39.22,25.94a7.91,7.91,0,0,1-2.57,2.12.94.94,0,0,0,.86,1.68,9.8,9.8,0,0,0,3.18-2.62.94.94,0,0,0-1.47-1.18Z"/><path class="e" d="M33.4,28.95l-.48,0v1.88l.63,0a.94.94,0,0,0-.15-1.88Z"/><path class="f" d="M26.49,27.68c-.41-.17-.66-.29-.67-.3l-.19-.07c-1-.26-2-.47-3-.62a.94.94,0,1,0-.28,1.86c.87.13,1.78.32,2.71.55.13.06.37.17.7.31a.94.94,0,0,0,.73-1.74Z"/><path class="f" d="M29.91,28.72a.94.94,0,1,0-.36,1.85,15.7,15.7,0,0,0,3,.3l.4,0V29A13.21,13.21,0,0,1,29.91,28.72Z"/><path class="f" d="M19.69,27.33a.94.94,0,0,0-.94-.92h0c-.62,0-1.22.06-1.8.13v1.89a16.2,16.2,0,0,1,1.84-.15A.94.94,0,0,0,19.69,27.33Z"/><line class="g" x1="8.46" y1="15.05" x2="8.46" y2="17.87"/><circle class="h" cx="8.46" cy="11.29" r="3.76"/><line class="g" x1="6.58" y1="20.69" x2="10.34" y2="24.45"/><line class="g" x1="6.58" y1="24.45" x2="10.34" y2="20.69"/><path class="a" d="M48.51,55.73,42.76,50a1.3,1.3,0,0,0-.37-.24,10,10,0,1,0-1.81,1.61,1.3,1.3,0,0,0,.31.52l5.75,5.68a1.33,1.33,0,1,0,1.87-1.89Z"/><circle class="i" cx="34.88" cy="43.18" r="8.15"/><path class="j" d="M27.15,45.72a8.09,8.09,0,0,0,1.7,2.91L40.34,37.14a8.09,8.09,0,0,0-2.91-1.7Z"/></svg>