<svg xmlns="http://www.w3.org/2000/svg" viewBox="0 0 58.81 58"><defs><style>.a{fill:#a0d6cc;}.b{fill:#fbce9d;}.c{fill:#6b5b4b;}.d{fill:#ecf0f1;}.e{fill:#dee0e0;}.f{fill:#c14d44;}.g{fill:#d75a4a;}.h{fill:#7383bf;}.i{fill:#556080;}.j{fill:#464f66;}</style></defs><title>home_icon_assign</title><circle class="a" cx="34.08" cy="28.14" r="24.73"/><path class="b" d="M54.48,42.1a10.82,10.82,0,0,0-10.76-9.7H38.65a1.16,1.16,0,0,1-1.16-1.16v-.55a1.18,1.18,0,0,1,.79-1.1c4.95-1.86,8.34-10,7.65-15.72A12,12,0,0,0,35.46,3.49a12.16,12.16,0,0,0-1.31-.08h0a11.94,11.94,0,0,0-12,11.94c0,5.14,3.25,12.58,7.8,14.26a1.15,1.15,0,0,1,.73,1.08v.54a1.16,1.16,0,0,1-1.16,1.16H24.44a10.82,10.82,0,0,0-10.76,9.7,24.72,24.72,0,0,0,40.81,0Z"/><path class="c" d="M37.92,10.42a17.83,17.83,0,0,1,8.95,8.34c0-.29,0-.59,0-.87C46.1,9.51,41.21,2.76,35.2,1.82a9.74,9.74,0,0,0-1.45-.12h0c-6.55,0-12,6.59-13.07,15.27h0c.17.33.34.67.52,1l.2-.34c1.89-3.14,5.06-3.87,7.75-2.2a5.08,5.08,0,0,0,2.68.78C34.56,16.21,36.94,13.81,37.92,10.42Z"/><path class="d" d="M54.48,42.1a10.82,10.82,0,0,0-10.76-9.7H40.9l-6.82,6.82L27.26,32.4H24.44a10.82,10.82,0,0,0-10.76,9.7,24.72,24.72,0,0,0,40.81,0Z"/><path class="e" d="M46,49.78c.58-.32,1.15-.67,1.71-1V43.48H46Z"/><path class="e" d="M22.14,49.78v-6.3H20.44v5.26C21,49.11,21.56,49.46,22.14,49.78Z"/><polygon class="e" points="30.14 32.4 24.7 32.4 29.82 37.51 31.47 36.61 34.08 39.22 30.14 32.4"/><polygon class="e" points="38.02 32.4 43.46 32.4 38.34 37.51 36.69 36.61 34.08 39.22 38.02 32.4"/><circle class="e" cx="34.08" cy="39.22" r="0.85"/><circle class="e" cx="34.08" cy="41.78" r="0.85"/><path class="f" d="M24.7,3.41a8.79,8.79,0,0,0-5.88,1.47c-2.64,1.94-.09,7.06,5,7.06S40,10.23,42.61,10.23,27.26,2.56,24.7,3.41Z"/><path class="g" d="M25.55,2.08S32.38-2,39.2,1.26s6,9,6,9S29,10.23,25.55,7,25.55,2.08,25.55,2.08Z"/><polygon class="h" points="8.45 50.43 25.72 37.92 11.93 51.77 22 56.3 25.72 37.92 0 47.53 8.45 50.43"/><polygon class="i" points="11.93 51.77 11.05 58 8.45 50.43 25.72 37.92 11.93 51.77"/><polygon class="j" points="11.93 51.77 11.02 58 15.88 53.55 11.93 51.77"/></svg>