<svg xmlns="http://www.w3.org/2000/svg" viewBox="0 0 45.86 58"><defs><style>.a{fill:#d8d5ca;}.b{fill:#edeada;}.c{fill:#cec9ae;}.d{fill:#7383bf;}</style></defs><title>home_icon_portal</title><polygon class="a" points="45.87 13.31 35.35 1.9 5.71 1.9 5.71 58 45.87 58 45.87 13.31"/><polygon class="b" points="42.79 13.31 29.48 0 0 0 0 55.15 42.79 55.15 42.79 13.31"/><polygon class="c" points="29.48 0 29.48 13.31 42.79 13.31 29.48 0"/><path class="c" d="M25.67,32.33H9.51a1,1,0,0,0,0,1.9H25.67a1,1,0,0,0,0-1.9Z"/><path class="c" d="M36.13,28.52a1,1,0,0,0-1-1H28.52a1,1,0,0,0,0,1.9h6.66A1,1,0,0,0,36.13,28.52Z"/><path class="c" d="M14.26,29.48h9.51a1,1,0,1,0,0-1.9H14.26a1,1,0,0,0,0,1.9Z"/><path class="c" d="M9.51,29.48a1,1,0,0,0,.68-.28,1,1,0,1,0-1.63-.68,1,1,0,0,0,.28.67A.93.93,0,0,0,9.51,29.48Z"/><path class="c" d="M29.75,32.6a1,1,0,0,0-.28.68.94.94,0,0,0,.28.68,1,1,0,0,0,1.35,0,.94.94,0,0,0,.28-.68,1,1,0,0,0-1.63-.68Z"/><path class="c" d="M34.51,32.6a1,1,0,0,0-.28.68.94.94,0,0,0,.28.68,1,1,0,0,0,.68.28,1,1,0,0,0,.68-.29.94.94,0,0,0,.28-.67,1,1,0,0,0-1.63-.68Z"/><path class="d" d="M14.76,37.24c-2.08,1.08-2.78,3.16-3,5.31l-1.18-1c-.93-.78-2.29.56-1.34,1.35l2.67,2.24a1,1,0,0,0,1.62-.67c.07-2.06.17-4.51,2.23-5.58C16.81,38.32,15.85,36.68,14.76,37.24Z"/><path class="d" d="M29.35,42.07A2.09,2.09,0,0,0,27.79,41c-1.39-.1-3.76,1.88-4.75.13a1,1,0,0,0-1.3-.34c-1.35.83-3.11,2-4.52.48-.83-.9-2.17.44-1.34,1.34C17.66,44.55,20,44,22,42.86a3.9,3.9,0,0,0,1.61,1c.86.31,3.89-1.16,4.12-.84C28.42,44,30.07,43.07,29.35,42.07Z"/><path class="c" d="M18.63,20.05l-2.39-1.22A.49.49,0,0,1,16,18.4v-.73a4,4,0,0,0,2.27-2.84,1.27,1.27,0,0,0,.9-1.21V13a1.27,1.27,0,0,0-.68-1.12c-.28-2.38-1.86-3.35-4.39-3.35h-.35A3.81,3.81,0,0,1,11.27,8a3.19,3.19,0,0,1-.72-.64.13.13,0,0,0-.23.09c0,.22.06.48.12.76.21,1.05.08.9-.32,1.89a6.55,6.55,0,0,0-.44,1.8A1.27,1.27,0,0,0,9,13v.63a1.27,1.27,0,0,0,.9,1.21,4,4,0,0,0,2.27,2.84v.73a.49.49,0,0,1-.27.44L9.45,20a2.06,2.06,0,0,0-.9,1,9.47,9.47,0,0,0,11,0A2.06,2.06,0,0,0,18.63,20.05Z"/></svg>