<svg xmlns="http://www.w3.org/2000/svg" viewBox="0 0 47 58"><defs><style>.a{fill:#424a60;}.b{fill:#303644;}.c{fill:#edeada;}.d{fill:#7383bf;}.e{fill:#cec9ae;}</style></defs><title>home_icon_invoice</title><polygon class="a" points="32 2 28 2 28 5 19 5 19 2 15 2 0 2 0 58 47 58 47 2 32 2"/><rect class="b" x="19" width="9" height="5"/><polygon class="c" points="35 5 35 8 12 8 12 5 3 5 3 55 44 55 44 5 35 5"/><polygon class="d" points="28 2 28 5 19 5 19 2 12 2 12 8 35 8 35 2 28 2"/><path class="e" d="M22,16H9a1,1,0,0,1,0-2H22a1,1,0,0,1,0,2Z"/><path class="e" d="M38,22H9a1,1,0,0,1,0-2H38a1,1,0,0,1,0,2Z"/><path class="e" d="M38,34H9a1,1,0,0,1,0-2H38a1,1,0,0,1,0,2Z"/><path class="e" d="M22,47H9a1,1,0,0,1,0-2H22a1,1,0,0,1,0,2Z"/><path class="e" d="M26.87,41H8.63C8.28,41,8,40.55,8,40s.28-1,.63-1H26.87c.35,0,.63.45.63,1S27.22,41,26.87,41Z"/><path class="e" d="M23,28H9a1,1,0,0,1,0-2H23a1,1,0,0,1,0,2Z"/><path class="e" d="M38,28H31a1,1,0,0,1,0-2h7a1,1,0,0,1,0,2Z"/><path class="e" d="M27,28a1,1,0,0,1-.71-.29A1,1,0,0,1,26,27a1,1,0,0,1,.29-.71,1,1,0,0,1,1.42,0A1,1,0,0,1,28,27a1,1,0,0,1-1,1Z"/><path class="e" d="M37.88,41.13a.94.94,0,0,0-.22-.16l-.45-.23a6.2,6.2,0,0,0-.6-.24,3.55,3.55,0,0,0-.67-.16V42l.38.1a10.18,10.18,0,0,1,1.1.37,3.06,3.06,0,0,1,.84.49,2,2,0,0,1,.53.71,2.48,2.48,0,0,1,.19,1,2.58,2.58,0,0,1-.24,1.16,2.21,2.21,0,0,1-.64.79,2.84,2.84,0,0,1-.92.46,4.47,4.47,0,0,1-1.1.18v1.39h-.84v-1.4a7.1,7.1,0,0,1-1.64-.34,6.37,6.37,0,0,1-1.46-.69L33,44.48a1.31,1.31,0,0,0,.26.2,5.06,5.06,0,0,0,.54.29,6.45,6.45,0,0,0,.73.29,4,4,0,0,0,.84.19v-1.6l-.58-.17a7.12,7.12,0,0,1-1-.39,2.78,2.78,0,0,1-.72-.49,1.74,1.74,0,0,1-.43-.64,2.35,2.35,0,0,1-.14-.84,2.72,2.72,0,0,1,.22-1.11,2.6,2.6,0,0,1,.58-.83,2.67,2.67,0,0,1,.86-.55,4,4,0,0,1,1.07-.26V37.37h.84v1.21a5,5,0,0,1,1.46.35,10.17,10.17,0,0,1,1.18.56ZM34.56,41a.57.57,0,0,0,.21.47,2.12,2.12,0,0,0,.63.31V40.32Q34.56,40.4,34.56,41Zm2.32,3.82a.56.56,0,0,0-.25-.49A2.79,2.79,0,0,0,36,44v1.44Q36.87,45.44,36.88,44.84Z"/></svg>